# xmcd
# 
# Track frame offsets:
#     150
#     17325
#     31125
#     46125
#     60150
#     75900
#     90225
#     102075
#     117375
#     133725
#     149775
#     163950
# 
# Disc length: 2349
# 
# Revision: 2
# Processed by: cddbd v1.5.2PL0 Copyright (c) Steve Scherf et al.
# Submitted via: fre:ac v1.0.31
# 
DISCID=8c092b0c
DTITLE=Brigitte Boisjoli - Patsy Cline (Éition limitée)
DYEAR=2015
DGENRE=Country
TTITLE0=Crazy
TTITLE1=Walkin' After Midnight
TTITLE2=She's Got You
TTITLE3=Hungry For Love
TTITLE4=I Fall To Pieces
TTITLE5=Love Me Honey Do
TTITLE6=Back In Baby's Arms
TTITLE7=Sweet Dreams
TTITLE8=Gotta Lot Of Rhythm In My Soul
TTITLE9=Leavin' On Your Mind
TTITLE10=Let The Teardrops Fall
TTITLE11=He Will Do For You
EXTD=JB Team
EXTT0=
EXTT1=
EXTT2=
EXTT3=
EXTT4=
EXTT5=
EXTT6=
EXTT7=
EXTT8=
EXTT9=
EXTT10=
EXTT11=
PLAYORDER=
